<?xml version="1.0" standalone="no"?>
<!DOCTYPE svg PUBLIC "-//W3C//DTD SVG 20010904//EN"
 "http://www.w3.org/TR/2001/REC-SVG-20010904/DTD/svg10.dtd">
<svg version="1.0" xmlns="http://www.w3.org/2000/svg"
 width="920.000000pt" height="921.000000pt" viewBox="0 0 920.000000 921.000000"
 preserveAspectRatio="xMidYMid meet">

<g transform="translate(0.000000,921.000000) scale(0.100000,-0.100000)"
fill="#000000" stroke="none">
<path d="M4295 9190 c-613 -45 -1164 -191 -1700 -449 -925 -446 -1687 -1208
-2136 -2135 -420 -869 -552 -1819 -388 -2801 83 -501 293 -1073 556 -1517 199
-337 405 -607 673 -882 383 -393 785 -686 1270 -925 511 -252 988 -387 1600
-453 155 -17 700 -17 855 0 613 67 1105 208 1610 460 459 229 824 490 1189
850 610 603 1030 1341 1236 2177 162 657 171 1415 24 2073 -40 180 -128 476
-185 623 -28 74 -53 135 -54 137 -1 1 -54 -18 -116 -44 -184 -75 -404 -166
-408 -170 -1 -1 19 -65 47 -141 91 -252 134 -408 183 -675 94 -513 87 -1021
-22 -1548 -151 -730 -519 -1419 -1044 -1959 -466 -478 -993 -812 -1610 -1019
-1066 -357 -2223 -254 -3213 286 -565 308 -1087 791 -1434 1328 -393 605 -606
1262 -649 1991 -27 475 43 998 196 1460 186 558 461 1030 852 1458 563 618
1334 1059 2128 1220 332 67 522 86 840 87 625 0 1182 -129 1763 -407 78 -38
142 -72 142 -76 0 -4 -103 -151 -230 -326 -126 -175 -230 -320 -230 -324 0 -5
135 -26 1115 -169 297 -43 616 -90 709 -105 93 -14 170 -24 171 -23 2 3 -42
122 -170 453 -19 50 -89 234 -155 410 -67 176 -145 383 -175 460 -30 77 -95
248 -145 380 -50 132 -97 255 -104 273 l-12 33 -213 -294 -213 -294 -187 94
c-428 215 -915 372 -1361 438 -306 45 -740 64 -1005 45z"/>
<path d="M4385 6889 c-307 -45 -556 -201 -717 -449 -74 -113 -90 -146 -137
-284 -74 -213 -84 -287 -89 -653 l-4 -321 -36 -7 c-138 -24 -280 -106 -368
-214 -64 -77 -104 -154 -136 -266 l-23 -80 0 -870 c0 -979 -4 -925 77 -1094
31 -65 57 -100 116 -160 91 -92 162 -134 268 -161 75 -19 113 -20 1263 -20
1169 0 1187 0 1261 21 101 28 162 62 242 137 115 109 184 244 208 408 8 56 10
327 8 919 l-4 840 -23 75 c-73 241 -261 421 -480 461 l-71 12 0 307 c0 229 -4
330 -15 396 -52 301 -165 544 -335 715 -206 208 -457 301 -805 298 -77 -1
-167 -5 -200 -10z m397 -584 c72 -19 148 -56 199 -96 54 -42 124 -153 156
-244 l28 -80 3 -352 3 -353 -576 0 -576 0 3 353 3 352 31 85 c75 211 200 313
429 351 69 11 223 3 297 -16z m-60 -1716 c131 -27 284 -133 358 -249 72 -113
101 -273 70 -390 -28 -105 -124 -225 -247 -309 l-63 -42 0 -354 0 -355 -250 0
-250 0 0 358 0 357 -38 22 c-118 67 -238 207 -269 312 -24 83 -19 195 11 283
60 172 216 315 396 362 66 18 209 20 282 5z"/>
</g>
</svg>
