<?xml version="1.0" standalone="no"?>
<!DOCTYPE svg PUBLIC "-//W3C//DTD SVG 20010904//EN"
 "http://www.w3.org/TR/2001/REC-SVG-20010904/DTD/svg10.dtd">
<svg version="1.0" xmlns="http://www.w3.org/2000/svg"
 width="840.000000pt" height="859.000000pt" viewBox="0 0 840.000000 859.000000"
 preserveAspectRatio="xMidYMid meet">

<g transform="translate(0.000000,859.000000) scale(0.100000,-0.100000)"
fill="#000000" stroke="none">
<path d="M2804 8160 c-216 -56 -408 -233 -498 -459 l-29 -70 -771 -3 c-873 -4
-817 1 -1001 -88 -227 -110 -390 -311 -444 -551 l-22 -94 3 -2080 3 -2080 24
-70 c84 -251 255 -438 484 -533 152 -64 118 -62 1302 -62 591 0 1075 1 1075 3
0 2 -13 61 -30 133 -27 119 -50 250 -65 366 l-6 47 -1012 3 -1012 3 -46 22
c-59 27 -116 84 -143 142 l-21 46 -3 1995 c-2 1825 -1 1999 14 2047 20 64 70
124 132 161 l47 27 924 5 924 5 104 229 c57 126 115 243 130 260 58 70 -18 65
1061 66 819 0 977 -2 1000 -14 57 -30 88 -79 193 -309 l105 -232 920 -5 919
-5 47 -23 c53 -26 97 -72 130 -135 l23 -42 3 -623 3 -622 47 -24 c120 -61 322
-190 437 -280 l60 -47 3 808 c2 704 0 818 -13 887 -51 254 -222 470 -460 582
-176 82 -124 78 -988 82 l-767 3 -50 99 c-27 55 -67 123 -88 153 -66 89 -174
181 -265 226 -151 74 -89 71 -1262 70 -993 0 -1054 -1 -1121 -19z"/>
<path d="M1150 6240 l0 -280 275 0 275 0 1 130 c0 72 1 159 1 195 0 36 -1 103
-1 150 l-1 85 -275 0 -275 0 0 -280z"/>
<path d="M3773 6510 c-290 -28 -595 -146 -835 -322 -111 -81 -288 -262 -370
-378 -78 -110 -174 -296 -218 -424 -45 -130 -80 -318 -87 -464 -19 -416 119
-815 400 -1149 73 -87 214 -219 224 -210 2 3 15 48 29 102 33 130 68 238 121
369 43 108 43 109 24 130 -34 37 -112 166 -147 242 -19 40 -47 117 -62 171
-24 90 -27 112 -26 273 0 158 3 185 27 275 51 188 152 365 285 500 386 390
975 444 1423 130 l79 -56 113 44 c137 54 242 89 365 120 50 13 95 26 97 29 9
9 -144 166 -236 243 -331 276 -781 416 -1206 375z"/>
<path d="M5585 5388 c-203 -22 -467 -92 -660 -173 -741 -310 -1278 -931 -1476
-1705 -53 -208 -72 -370 -72 -610 1 -168 5 -245 22 -355 87 -568 338 -1051
754 -1451 375 -361 843 -589 1377 -670 142 -22 517 -25 660 -5 431 59 838 222
1167 468 560 418 909 1010 1004 1703 20 143 17 518 -5 660 -57 377 -192 729
-394 1031 -411 615 -1044 1008 -1775 1104 -130 17 -466 19 -602 3z m560 -558
c866 -120 1545 -804 1661 -1670 28 -214 15 -491 -33 -695 -87 -373 -262 -684
-535 -951 -370 -364 -836 -554 -1356 -554 -327 0 -602 64 -887 208 -1159 583
-1426 2143 -526 3075 180 186 327 295 546 402 216 106 436 170 672 195 104 10
346 5 458 -10z"/>
<path d="M5600 3735 l0 -555 -555 0 -555 0 0 -280 0 -280 555 0 555 0 0 -555
0 -555 278 2 277 3 1 535 c0 294 2 543 2 552 2 17 38 18 555 20 l552 3 3 277
2 278 -557 2 -558 3 0 553 1 552 -278 0 -278 0 0 -555z"/>
</g>
</svg>
